<svg width="124" height="86" viewBox="0 0 124 86" fill="none" xmlns="http://www.w3.org/2000/svg">
<rect x="0.366699" width="123.267" height="86" rx="7.19805" fill="white"/>
<path d="M3.51587 78.2789V8.09783C3.51587 5.36476 5.73146 3.14917 8.46453 3.14917H33.6577V5.84844H8.46453C7.22223 5.84844 6.21514 6.85553 6.21514 8.09783V78.2789C6.21514 79.5212 7.22223 80.5282 8.46453 80.5282H33.6577V83.2275H8.46453C5.73146 83.2275 3.51587 81.0119 3.51587 78.2789Z" fill="#174195"/>
<path d="M120.218 78.2789V8.09783C120.218 5.36476 118.002 3.14917 115.269 3.14917H90.0757V5.84844H115.269C116.511 5.84844 117.518 6.85553 117.518 8.09783V78.2789C117.518 79.5212 116.511 80.5282 115.269 80.5282H90.0757V83.2275H115.269C118.002 83.2275 120.218 81.0119 120.218 78.2789Z" fill="#CC2829"/>
<path d="M105.226 65.8764H17.2914V48.5538H33.7824L33.7649 35.746H17.2914V20.8492H64.6476V34.7263H105.226V65.8764Z" fill="#174195"/>
<path d="M104.121 49.6772H18.3917V64.6998H104.121V49.6772Z" fill="white"/>
<path d="M26.2828 32.6969H24.1086V23.2673L26.142 23.2358L28.7254 27.4632L31.2913 23.2358H33.3378V32.6969H31.1856L31.2077 27.0454L29.3151 30.3518H28.1093L26.208 27.0454L26.2828 32.6969Z" fill="white"/>
<path d="M40.4942 22.9077C37.8447 22.9077 35.697 25.1 35.697 27.8044C35.697 30.5088 37.8447 32.7011 40.4942 32.7011C43.1437 32.7011 45.2914 30.5088 45.2914 27.8044C45.2914 25.1 43.1437 22.9077 40.4942 22.9077ZM40.4942 30.5178C39.1034 30.5178 37.9768 29.3004 37.9768 27.8044C37.9768 26.3085 39.1034 25.091 40.4942 25.091C41.885 25.091 43.0117 26.3085 43.0117 27.8044C43.0117 29.3004 41.885 30.5178 40.4942 30.5178Z" fill="white"/>
<path d="M50.1061 32.6969H47.8835V23.2358H49.9609L54.0232 28.721V23.2358H56.1973V32.6969H54.1243L50.1193 27.0723L50.1061 32.6969Z" fill="white"/>
<path d="M62.2795 46.906H60.101V37.4766L62.1342 37.4451L64.7177 41.6724L67.2879 37.4451H69.3345V46.906H67.178L67.1999 41.2546L65.3118 44.561H64.1016L62.2003 41.2546L62.2795 46.906Z" fill="white"/>
<path d="M53.2483 37.1169C50.5988 37.1169 48.4511 39.3092 48.4511 42.0137C48.4511 44.7181 50.5988 46.9103 53.2483 46.9103C55.8978 46.9103 58.0455 44.7181 58.0455 42.0137C58.0455 39.3092 55.8978 37.1169 53.2483 37.1169ZM53.2483 44.727C51.8575 44.727 50.7308 43.5096 50.7308 42.0137C50.7308 40.5176 51.8575 39.3002 53.2483 39.3002C54.6391 39.3002 55.7657 40.5176 55.7657 42.0137C55.7657 43.5096 54.6391 44.727 53.2483 44.727Z" fill="white"/>
<path d="M44.8915 43.4786C44.4439 44.2289 43.6631 44.727 42.7736 44.727C41.3828 44.727 40.2562 43.5096 40.2562 42.0137C40.2562 40.5176 41.3828 39.3002 42.7736 39.3002C43.5417 39.3002 44.2287 39.6722 44.6903 40.2567L46.9855 39.6686C46.1713 38.1484 44.5904 37.1169 42.7732 37.1169C40.1237 37.1169 37.976 39.3092 37.976 42.0137C37.976 44.7181 40.1237 46.9103 42.7732 46.9103C44.6556 46.9103 46.2845 45.8034 47.07 44.1929L44.8915 43.4786Z" fill="white"/>
<path d="M79.1221 40.6617C79.1221 37.5843 76.1778 37.4451 76.1778 37.4451H71.9527V46.9105H74.1709L74.2105 43.9769C79.6635 44.3409 79.1266 40.6661 79.1266 40.6661L79.1221 40.6617ZM75.3899 41.8026H74.1665V39.5206H75.2932C75.2932 39.5206 76.8423 39.4576 76.8423 40.6617C76.8423 41.8656 75.3944 41.8026 75.3944 41.8026H75.3899Z" fill="white"/>
<path d="M85.5217 46.906H83.2946V39.5206H80.4868V37.4451L88.2767 37.4495V39.5206H85.5217V46.906Z" fill="white"/>
<path d="M96.7312 46.906L89.9006 46.9015V37.4495L96.7312 37.4451V39.5206H92.1276V41.1288H95.6134V43.1459H92.1409V44.7497H96.7312V46.906Z" fill="white"/>
<path d="M51.4353 62.0813H49.261V52.6518L51.29 52.6204L53.8734 56.8477L56.4437 52.6204H58.4902V62.0813H56.3381L56.3557 56.4299L54.4676 59.7363H53.2616L51.3604 56.4299L51.4353 62.0813Z" fill="#174195"/>
<path d="M33.7115 52.2922C31.062 52.2922 28.9143 54.4845 28.9143 57.189C28.9143 59.8934 31.062 62.0857 33.7115 62.0857C36.361 62.0857 38.5087 59.8934 38.5087 57.189C38.5087 54.4845 36.361 52.2922 33.7115 52.2922ZM33.7115 59.9023C32.3207 59.9023 31.1941 58.6849 31.1941 57.189C31.1941 55.6929 32.3207 54.4756 33.7115 54.4756C35.1023 54.4756 36.229 55.6929 36.229 57.189C36.229 58.6849 35.1023 59.9023 33.7115 59.9023Z" fill="#174195"/>
<path d="M86.2657 52.2922C83.6162 52.2922 81.4685 54.4845 81.4685 57.189C81.4685 59.8934 83.6162 62.0857 86.2657 62.0857C88.9152 62.0857 91.0629 59.8934 91.0629 57.189C91.0629 54.4845 88.9152 52.2922 86.2657 52.2922ZM86.2657 59.9023C84.8749 59.9023 83.7482 58.6849 83.7482 57.189C83.7482 55.6929 84.8749 54.4756 86.2657 54.4756C87.6565 54.4756 88.7831 55.6929 88.7831 57.189C88.7831 58.6849 87.6565 59.9023 86.2657 59.9023Z" fill="#174195"/>
<path d="M95.0326 62.0813H92.8101V52.6204H94.8874L98.9496 58.1101V52.6204H101.124V62.0813H99.0509L95.0415 56.4568L95.0326 62.0813Z" fill="#174195"/>
<path d="M73.529 62.0813H71.302V54.6959H68.4941V52.6204L76.2885 52.6248V54.6959H73.5334L73.529 62.0813Z" fill="#174195"/>
<path d="M79.7607 52.4849H77.5338V62.0806H79.7607V52.4849Z" fill="#174195"/>
<path d="M23.6199 62.0815H21.3885V52.625H28.021V54.7005H23.6551V56.5334H26.9868V58.6224H23.6507L23.6199 62.0815Z" fill="#174195"/>
<path d="M47.7513 62.0813L45.6739 58.6626C47.5356 57.7282 47.2584 55.8369 47.2584 55.8369C47.2584 52.7596 44.3139 52.6204 44.3139 52.6204H40.0889V62.0858H42.307L42.3467 59.1523C42.8 59.1837 43.2092 59.1837 43.5878 59.1613L45.2779 62.0768L47.7557 62.0858H47.7513V62.0813ZM42.3027 56.978V54.6959H43.4293C43.4293 54.6959 44.9786 54.633 44.9786 55.8369C44.9786 57.0409 43.5306 56.978 43.5306 56.978H42.3027Z" fill="#174195"/>
<path d="M65.5583 52.6113H63.4105L59.6872 62.0813L62.0682 62.0363L62.636 60.6348H66.2801L66.7994 62.0813H69.2464L65.5627 52.6113H65.5583ZM63.4105 58.5952L64.4755 55.4685L65.5583 58.5952H63.4105Z" fill="#174195"/>
</svg>
